<?xml version="1.0" standalone="no"?>
<!DOCTYPE svg PUBLIC "-//W3C//DTD SVG 20010904//EN"
 "http://www.w3.org/TR/2001/REC-SVG-20010904/DTD/svg10.dtd">
<svg version="1.0" xmlns="http://www.w3.org/2000/svg"
 width="370.000000pt" height="136.000000pt" viewBox="0 0 370.000000 136.000000"
 preserveAspectRatio="xMidYMid meet">

<g transform="translate(0.000000,136.000000) scale(0.100000,-0.100000)"
fill="#000000" stroke="none">
<path d="M2345 1283 c-122 -55 -115 -41 -115 -223 l0 -158 -37 -7 c-21 -4 -60
-16 -86 -27 -26 -12 -50 -18 -54 -14 -3 3 -7 41 -8 83 -1 77 -2 79 -53 156
l-53 77 -64 0 c-60 0 -72 -4 -167 -57 -57 -31 -111 -63 -120 -71 -26 -22 -24
-132 2 -191 11 -24 18 -46 15 -49 -3 -3 -47 -6 -98 -7 -50 0 -102 -4 -113 -9
-21 -8 -22 -5 -28 116 -9 160 -24 280 -35 291 -5 5 -40 7 -78 5 -79 -5 -248
-72 -272 -108 -8 -12 -16 -56 -19 -101 -3 -44 -7 -81 -11 -83 -3 -2 -40 -5
-81 -7 l-75 -4 -6 72 c-7 90 -40 146 -103 174 -58 25 -190 34 -302 20 -123
-15 -304 -67 -327 -93 -27 -32 -21 -100 18 -212 33 -96 65 -146 91 -146 19 0
26 -16 108 -247 41 -114 77 -216 81 -225 4 -9 23 -24 42 -33 48 -23 102 -15
166 25 l51 32 59 -29 c54 -25 70 -28 166 -28 78 0 117 5 149 18 23 9 47 17 52
17 6 0 10 -20 10 -44 0 -29 7 -52 21 -70 20 -26 20 -26 169 -26 158 0 162 1
174 52 3 16 13 28 21 28 8 0 51 -25 95 -55 71 -48 87 -55 130 -55 57 0 77 15
85 68 11 63 9 62 88 62 40 0 99 7 131 15 52 14 62 14 114 -2 49 -15 101 -17
391 -15 319 2 334 1 358 -18 23 -18 41 -20 174 -20 116 0 156 4 182 16 31 15
36 15 65 0 24 -13 62 -16 177 -16 132 0 150 2 176 21 26 19 29 26 29 80 0 59
-1 62 -73 157 -40 53 -77 103 -81 110 -5 8 19 46 65 104 100 126 119 162 119
224 0 77 -2 78 -202 71 l-170 -6 -29 -33 -28 -33 -30 32 c-28 29 -36 31 -123
38 -51 3 -131 5 -178 3 -79 -3 -85 -5 -97 -28 -11 -23 -19 -26 -100 -31 -48
-4 -97 -10 -109 -14 -21 -7 -21 -5 -29 217 -4 126 -11 228 -17 236 -21 25
-118 14 -203 -25z m148 -145 c4 -62 7 -191 7 -286 l0 -173 36 35 c97 94 253
118 375 56 l41 -21 -41 53 c-22 29 -36 55 -30 57 6 2 61 0 122 -4 l112 -7 55
-74 c30 -40 57 -74 60 -74 3 1 29 34 59 74 l54 74 101 7 c165 11 163 20 40
-135 -157 -199 -149 -164 -63 -276 41 -53 89 -116 107 -140 l34 -44 -116 0
-116 0 -47 60 c-25 33 -50 60 -54 60 -4 0 -29 -27 -54 -60 l-46 -60 -116 0
c-91 0 -113 3 -106 13 5 6 54 70 107 140 l98 128 -72 94 c-39 52 -75 95 -78
94 -16 -1 -231 -269 -217 -269 28 0 72 28 103 67 17 21 32 36 34 33 2 -3 25
-31 52 -62 56 -68 55 -84 -7 -129 -66 -48 -162 -72 -266 -67 -61 3 -97 9 -114
21 -33 21 -34 21 -40 -2 -4 -15 -19 -19 -95 -25 -51 -4 -97 -4 -104 0 -7 5
-42 7 -78 5 -73 -3 -113 9 -151 45 l-27 26 -39 -20 c-75 -39 -150 -54 -236
-50 -45 3 -89 8 -98 12 -14 6 -15 -2 -11 -70 4 -64 2 -76 -9 -72 -8 3 -70 46
-139 95 -69 49 -140 99 -159 112 l-33 24 7 -107 7 -106 -105 0 c-121 0 -117
-4 -117 99 0 38 -3 102 -6 144 l-7 76 -19 -39 c-46 -92 -169 -170 -267 -170
-80 1 -165 68 -190 149 -16 54 -14 155 4 199 21 50 89 118 150 150 97 51 248
25 297 -52 l20 -31 -6 79 c-3 43 -6 94 -6 113 0 33 -1 34 -34 28 l-34 -7 10
49 c6 26 15 53 22 60 14 14 207 95 213 89 3 -3 12 -112 20 -243 9 -131 17
-240 19 -242 2 -2 42 18 90 44 l87 47 79 -12 78 -11 37 30 c100 80 273 87 369
15 31 -23 32 -23 49 -4 28 30 134 80 172 80 l33 0 0 168 0 169 88 41 c48 22
90 41 93 41 3 1 9 -50 12 -111z m-1865 -67 c126 -65 102 -170 -80 -351 l-78
-77 26 -89 c14 -49 32 -110 39 -136 l14 -48 -56 -40 c-31 -22 -59 -40 -62 -40
-3 0 -21 44 -39 98 -30 86 -144 413 -158 452 -4 12 -9 10 -25 -9 -11 -13 -21
-22 -23 -20 -12 12 -74 194 -68 200 11 9 180 58 257 74 96 20 199 14 253 -14z
m1296 -41 c25 -38 46 -74 46 -79 0 -5 -55 -19 -122 -31 -68 -12 -130 -24 -139
-26 -17 -5 -79 77 -63 84 5 1 56 29 114 62 58 32 108 59 111 59 3 1 27 -30 53
-69z"/>
<path d="M873 720 c-68 -41 -83 -114 -32 -153 31 -22 92 -25 116 -5 21 17 52
86 53 116 0 21 -2 20 -31 -13 -17 -19 -39 -35 -48 -35 -40 0 -54 48 -25 88 19
27 9 28 -33 2z"/>
<path d="M2236 705 c-55 -51 -56 -113 -2 -146 51 -31 66 -26 66 25 0 26 -6 48
-15 56 -18 15 -20 61 -3 78 24 24 -19 12 -46 -13z"/>
<path d="M1999 648 c-18 -24 -62 -76 -97 -115 -40 -47 -57 -73 -47 -73 47 0
138 86 150 142 4 18 14 45 21 61 20 38 13 34 -27 -15z"/>
<path d="M1767 649 c-32 -25 -52 -84 -40 -118 9 -22 12 -20 70 50 34 40 59 77
57 81 -10 15 -62 8 -87 -13z"/>
<path d="M2659 655 c-39 -21 -62 -99 -41 -133 6 -9 27 9 70 62 33 41 58 77 55
80 -11 11 -57 6 -84 -9z"/>
<path d="M1518 579 c-43 -33 -78 -63 -78 -67 0 -7 135 -112 145 -112 2 0 0 12
-5 26 -14 36 -12 100 4 162 7 29 13 52 12 51 -1 0 -36 -27 -78 -60z"/>
<path d="M425 898 c-11 -6 -21 -12 -23 -13 -2 -2 4 -29 14 -61 l17 -59 48 55
c63 69 64 90 7 90 -24 0 -52 -6 -63 -12z"/>
</g>
</svg>
